<svg width="125" height="66" viewBox="0 0 125 66" fill="none" xmlns="http://www.w3.org/2000/svg">
<path d="M3.53297 38V9.08H14.013C17.7996 9.08 20.6063 9.73333 22.433 11.04C24.273 12.3333 25.193 14.2067 25.193 16.66C25.193 18.1 24.8263 19.3533 24.093 20.42C23.3596 21.4733 22.053 22.3933 20.173 23.18C21.3863 23.4867 22.3663 23.9 23.113 24.42C23.8596 24.94 24.433 25.52 24.833 26.16C25.233 26.7867 25.5063 27.4467 25.653 28.14C25.7996 28.82 25.873 29.4933 25.873 30.16C25.873 32.8267 24.9663 34.8 23.153 36.08C21.3396 37.36 18.453 38 14.493 38H3.53297ZM9.35297 33.48H14.613C16.373 33.48 17.6996 33.1267 18.593 32.42C19.4996 31.7133 19.953 30.7667 19.953 29.58C19.953 28.7267 19.733 28.0133 19.293 27.44C18.853 26.8533 18.253 26.4133 17.493 26.12C16.7463 25.8267 15.893 25.68 14.933 25.68H9.35297V33.48ZM9.35297 21.04H14.933C15.533 21.04 16.1063 20.9733 16.653 20.84C17.213 20.6933 17.7063 20.4733 18.133 20.18C18.573 19.8867 18.9196 19.5133 19.173 19.06C19.4263 18.5933 19.553 18.0467 19.553 17.42C19.553 16.1667 19.0796 15.22 18.133 14.58C17.1996 13.9267 15.9996 13.6 14.533 13.6H9.35297V21.04ZM49.9427 25.58H37.2827V38H31.4627V9.08H37.2827V20.68H49.9427V9.08H55.7827V38H49.9427V25.58ZM62.2439 9.08H68.0639V38H62.2439V9.08ZM98.5686 9.08L88.5886 38H81.9686L72.0686 9.08H77.6486L85.2886 31.22L92.9886 9.08H98.5686ZM102.556 38V9.08H122.416L122.396 14H108.416V21.02H120.556V25.84H108.376V33.02L122.616 33.04V38H102.556Z" fill="black"/>
<path d="M52.3925 46.54L47.1425 61H45.9825L40.8625 46.54H41.7225L46.5725 60.18L51.5525 46.54H52.3925ZM55.1492 46.54H55.9292V61H55.1492V46.54ZM64.715 61.2C64.0683 61.2 63.4483 61.12 62.855 60.96C62.2683 60.7933 61.7383 60.5533 61.265 60.24C60.7917 59.92 60.395 59.53 60.075 59.07C59.7617 58.6033 59.5517 58.0667 59.445 57.46H60.325C60.4717 58.1133 60.7583 58.66 61.185 59.1C61.6183 59.54 62.1417 59.87 62.755 60.09C63.3683 60.31 64.0217 60.42 64.715 60.42C65.5417 60.42 66.2683 60.2967 66.895 60.05C67.5217 59.7967 68.0117 59.45 68.365 59.01C68.725 58.57 68.905 58.0667 68.905 57.5C68.905 56.9867 68.815 56.53 68.635 56.13C68.455 55.73 68.175 55.39 67.795 55.11C67.4217 54.83 66.9317 54.6133 66.325 54.46L63.165 53.66C62.1183 53.3933 61.3117 52.9933 60.745 52.46C60.1783 51.92 59.895 51.22 59.895 50.36C59.895 49.6 60.0917 48.92 60.485 48.32C60.8783 47.7133 61.4283 47.2367 62.135 46.89C62.8483 46.5367 63.6817 46.36 64.635 46.36C65.7083 46.36 66.6017 46.56 67.315 46.96C68.035 47.3533 68.575 47.8567 68.935 48.47C69.3017 49.0833 69.4817 49.7133 69.475 50.36H68.595C68.5217 49.56 68.285 48.93 67.885 48.47C67.4917 48.0033 67.005 47.6733 66.425 47.48C65.8517 47.28 65.245 47.18 64.605 47.18C64.1783 47.18 63.7383 47.2433 63.285 47.37C62.8317 47.49 62.4117 47.68 62.025 47.94C61.6383 48.1933 61.325 48.52 61.085 48.92C60.845 49.3133 60.725 49.7867 60.725 50.34C60.725 50.96 60.9417 51.4667 61.375 51.86C61.8083 52.2533 62.5783 52.5967 63.685 52.89L66.715 53.69C67.275 53.8367 67.7483 54.04 68.135 54.3C68.5217 54.5533 68.8317 54.8467 69.065 55.18C69.305 55.5133 69.4783 55.8733 69.585 56.26C69.6917 56.6467 69.745 57.0467 69.745 57.46C69.745 58.14 69.5583 58.7633 69.185 59.33C68.8117 59.8967 68.2517 60.35 67.505 60.69C66.765 61.03 65.835 61.2 64.715 61.2ZM71.9008 61L77.2008 46.54H78.3008L83.5808 61H82.7208L81.0608 56.44H74.4408L72.7408 61H71.9008ZM74.7208 55.58H80.7608L77.7608 47.38L74.7208 55.58Z" fill="black"/>
</svg>
